<svg xmlns="http://www.w3.org/2000/svg" xmlns:xlink="http://www.w3.org/1999/xlink" width="500" zoomAndPan="magnify" viewBox="0 0 375 374.999991" height="500" preserveAspectRatio="xMidYMid meet" version="1.0"><defs><g/><clipPath id="0b01437a88"><path d="M 61.550781 195.394531 L 313.550781 195.394531 L 313.550781 323.644531 L 61.550781 323.644531 Z M 61.550781 195.394531 " clip-rule="nonzero"/></clipPath><clipPath id="bcd826c37c"><path d="M 139 158 L 236 158 L 236 270.394531 L 139 270.394531 Z M 139 158 " clip-rule="nonzero"/></clipPath><clipPath id="8c6c7f8455"><path d="M 123.1875 120.394531 L 252.1875 120.394531 L 252.1875 152 L 123.1875 152 Z M 123.1875 120.394531 " clip-rule="nonzero"/></clipPath></defs><g clip-path="url(#0b01437a88)"><path fill="#000000" d="M 63.527344 195.503906 C 64.621094 195.503906 65.503906 196.390625 65.503906 197.484375 C 65.503906 264.914062 120.144531 319.578125 187.550781 319.578125 C 254.957031 319.578125 309.597656 264.914062 309.597656 197.484375 C 309.597656 196.390625 310.484375 195.503906 311.574219 195.503906 C 312.667969 195.503906 313.550781 196.390625 313.550781 197.484375 C 313.550781 267.097656 257.140625 323.535156 187.550781 323.535156 C 117.964844 323.535156 61.550781 267.097656 61.550781 197.484375 C 61.550781 196.390625 62.4375 195.503906 63.527344 195.503906 Z M 63.527344 195.503906 " fill-opacity="1" fill-rule="evenodd"/></g><g clip-path="url(#bcd826c37c)"><path fill="#000000" d="M 149.617188 264.578125 C 149.925781 267.945312 152.6875 270.394531 156.066406 270.394531 L 219.003906 270.394531 C 222.378906 270.394531 225.144531 267.945312 225.449219 264.578125 L 235.582031 158.351562 L 139.484375 158.351562 Z M 204.265625 190.800781 C 204.265625 187.128906 206.722656 184.375 209.792969 184.375 C 212.554688 184.375 214.703125 187.128906 214.703125 190.191406 L 214.703125 190.800781 L 211.019531 253.863281 C 211.019531 256.617188 208.566406 258.457031 206.109375 258.457031 C 203.652344 258.457031 201.503906 256.3125 201.808594 253.863281 Z M 187.6875 184.375 C 190.757812 184.375 192.90625 187.128906 192.90625 190.800781 L 192.292969 253.863281 C 192.292969 256.617188 190.144531 258.457031 187.6875 258.457031 C 185.230469 258.457031 183.082031 256.3125 183.082031 253.863281 L 182.46875 190.800781 C 182.46875 187.433594 184.617188 184.375 187.6875 184.375 Z M 165.582031 184.375 C 167.117188 184.375 168.34375 184.984375 169.574219 186.210938 C 170.496094 187.433594 171.109375 188.964844 171.414062 190.800781 L 173.566406 253.863281 C 173.566406 256.617188 171.722656 258.457031 169.265625 258.457031 C 166.808594 258.457031 164.660156 256.3125 164.355469 253.863281 L 160.671875 190.800781 C 160.363281 187.433594 162.511719 184.375 165.582031 184.375 Z M 165.582031 184.375 " fill-opacity="1" fill-rule="nonzero"/></g><g clip-path="url(#8c6c7f8455)"><path fill="#000000" d="M 249.703125 135.699219 L 212.25 135.699219 L 212.25 123.457031 C 212.25 121.617188 211.019531 120.394531 209.179688 120.394531 L 166.195312 120.394531 C 164.355469 120.394531 163.125 121.617188 163.125 123.457031 L 163.125 135.699219 L 125.671875 135.699219 C 124.441406 135.699219 123.214844 136.925781 123.214844 138.148438 L 123.214844 149.476562 C 123.214844 150.699219 124.441406 151.925781 125.671875 151.925781 L 249.703125 151.925781 C 250.933594 151.925781 252.160156 150.699219 252.160156 149.476562 L 252.160156 138.148438 C 252.160156 136.925781 250.933594 135.699219 249.703125 135.699219 Z M 169.265625 126.515625 L 206.109375 126.515625 L 206.109375 135.699219 L 169.265625 135.699219 Z M 169.265625 126.515625 " fill-opacity="1" fill-rule="nonzero"/></g><g fill="#000000" fill-opacity="1"><g transform="translate(69.976105, 171.110158)"><g><path d="M -6.9375 -10.28125 L -7.359375 -8.503906 C -7.46875 -8.046875 -7.554688 -7.785156 -7.714844 -7.542969 C -7.472656 -7.488281 -6.96875 -7.367188 -6.460938 -7.25 L -5.234375 -6.957031 C -5.269531 -7.246094 -5.230469 -7.515625 -5.121094 -7.972656 L -4.972656 -8.597656 C -1.898438 -7.742188 -0.257812 -6.84375 -0.65625 -5.160156 C -1.167969 -2.996094 -4.269531 -3.527344 -9.128906 -4.679688 C -13.988281 -5.832031 -16.828125 -6.707031 -16.316406 -8.871094 C -15.949219 -10.410156 -14.429688 -10.609375 -11.769531 -10.15625 L -11.304688 -12.105469 C -15.839844 -12.800781 -17.667969 -11.960938 -18.289062 -9.339844 C -19.058594 -6.09375 -16.8125 -4.417969 -9.597656 -2.707031 C -2.40625 -1 0.546875 -1.445312 1.316406 -4.691406 C 2.058594 -7.820312 -0.0390625 -9.484375 -6.730469 -11.148438 Z M -6.9375 -10.28125 "/></g></g></g><g fill="#000000" fill-opacity="1"><g transform="translate(73.318072, 157.938908)"><g><path d="M 3.296875 -9.085938 C 3.171875 -9.027344 2.992188 -9.039062 2.898438 -9.074219 C -3.109375 -9.832031 -9.882812 -11.03125 -15.820312 -12.34375 C -16.039062 -12.398438 -16.367188 -12.4375 -16.464844 -12.605469 L -16.480469 -12.558594 C -16.714844 -11.90625 -17.164062 -10.675781 -17.257812 -10.417969 L -17.273438 -10.375 C -17.089844 -10.4375 -16.816406 -10.257812 -16.613281 -10.160156 C -11.214844 -7.359375 -5.253906 -3.933594 -0.15625 -0.660156 C -0.0703125 -0.605469 0.0859375 -0.523438 0.144531 -0.394531 L 0.945312 -2.601562 C 0.757812 -2.59375 0.496094 -2.738281 0.363281 -2.8125 C -1.148438 -3.652344 -3.296875 -4.828125 -5.761719 -6.222656 C -5.480469 -6.855469 -5.1875 -7.589844 -4.96875 -8.40625 C -2.183594 -7.894531 0.21875 -7.414062 1.90625 -7.066406 C 2.054688 -7.039062 2.351562 -6.984375 2.496094 -6.878906 Z M -7.574219 -7.246094 C -8.835938 -7.96875 -10.136719 -8.730469 -11.5 -9.539062 C -9.957031 -9.296875 -8.457031 -9.011719 -7.046875 -8.765625 C -7.15625 -8.25 -7.339844 -7.742188 -7.574219 -7.246094 Z M -7.574219 -7.246094 "/></g></g></g><g fill="#000000" fill-opacity="1"><g transform="translate(78.238946, 144.927384)"><g><path d="M 5.109375 -10.019531 C 4.941406 -9.910156 4.820312 -9.890625 4.710938 -9.945312 C 0.859375 -11.046875 -0.820312 -11.238281 -3.398438 -10.972656 C -3.59375 -12.488281 -4.609375 -14.308594 -7.515625 -15.789062 C -12.515625 -18.339844 -14.675781 -15.195312 -15.4375 -13.695312 C -16.109375 -12.375 -17.066406 -10.28125 -17.082031 -9.707031 C -16.839844 -9.695312 -16.628906 -9.613281 -16.453125 -9.523438 C -15.386719 -9.0625 -12.34375 -7.625 -7.984375 -5.402344 C -2.566406 -2.640625 -0.972656 -1.632812 -0.773438 -1.53125 C -0.34375 -1.285156 0.195312 -0.980469 0.394531 -0.769531 L 1.59375 -3.128906 C 1.316406 -3.183594 0.765625 -3.355469 0.25 -3.589844 C -1.09375 -4.21875 -4.738281 -6.050781 -5.167969 -6.351562 C -4.84375 -6.660156 -4.207031 -7.527344 -3.75 -8.429688 L -3.660156 -8.609375 C -1.035156 -9.019531 1.792969 -8.632812 3.621094 -7.699219 C 3.664062 -7.675781 3.761719 -7.597656 3.804688 -7.464844 Z M -10.621094 -9.046875 C -12.734375 -10.125 -13.792969 -10.71875 -14 -10.855469 C -14.054688 -11.1875 -13.648438 -12.089844 -13.402344 -12.574219 C -12.984375 -13.390625 -12.03125 -15.425781 -8.570312 -13.664062 C -5.113281 -11.902344 -5.394531 -10.101562 -5.84375 -9.222656 C -6.214844 -8.496094 -6.738281 -7.734375 -7.21875 -7.398438 C -7.492188 -7.507812 -8.617188 -8.027344 -10.621094 -9.046875 Z M -10.621094 -9.046875 "/></g></g></g><g fill="#000000" fill-opacity="1"><g transform="translate(85.506484, 131.267989)"><g><path d="M -5.128906 -12.332031 C -5.25 -13.519531 -5.855469 -14.828125 -7.386719 -15.871094 C -10.660156 -18.09375 -13.0625 -15.960938 -13.898438 -14.734375 C -14.730469 -13.507812 -15.132812 -12.078125 -15.261719 -11.539062 C -15.0625 -11.523438 -14.90625 -11.445312 -14.785156 -11.363281 C -14.136719 -10.953125 -12.144531 -9.660156 -9.097656 -7.589844 L -8.507812 -7.1875 C -8.425781 -7.128906 -8.34375 -7.074219 -8.261719 -7.019531 L -8.058594 -6.878906 L -7.15625 -6.269531 C -1.757812 -2.601562 -0.261719 -1.375 -0.199219 -1.332031 C -0.140625 -1.289062 0.132812 -1.074219 0.261719 -0.867188 C 0.738281 -1.171875 2.160156 -3.222656 2.996094 -4.449219 C 3.828125 -5.675781 4.96875 -8.9375 1.042969 -11.605469 C -1.964844 -13.648438 -3.957031 -13.179688 -5.128906 -12.332031 Z M -12.851562 -12.710938 C -12.808594 -13.039062 -12.667969 -13.421875 -12.257812 -13.890625 C -11.773438 -14.515625 -10.375 -15.390625 -8.566406 -14.132812 C -6.707031 -12.867188 -6.335938 -11.300781 -7.046875 -10.257812 C -7.226562 -9.992188 -7.503906 -9.582031 -7.808594 -9.222656 L -10.425781 -11 C -11.898438 -12 -12.683594 -12.5625 -12.851562 -12.710938 Z M 1.273438 -5.742188 C 0.953125 -5.269531 0.1875 -4.234375 -0.0742188 -4.023438 C -0.761719 -4.464844 -1.960938 -5.25 -2.757812 -5.789062 C -4.558594 -7.011719 -5.710938 -7.824219 -6.0625 -8.097656 C -5.855469 -8.582031 -5.382812 -9.367188 -4.921875 -10.039062 C -4.367188 -10.859375 -3.042969 -11.839844 -0.136719 -9.867188 C 2.539062 -8.046875 1.578125 -6.191406 1.273438 -5.742188 Z M 1.273438 -5.742188 "/></g></g></g><g fill="#000000" fill-opacity="1"><g transform="translate(93.858483, 119.409576)"><g><path d="M 6.34375 -7.292969 C 6.207031 -7.28125 6.042969 -7.359375 5.96875 -7.421875 C 0.632812 -10.292969 -5.253906 -13.84375 -10.324219 -17.207031 C -10.507812 -17.335938 -10.796875 -17.492188 -10.828125 -17.679688 L -10.863281 -17.644531 C -11.316406 -17.121094 -12.175781 -16.132812 -12.355469 -15.929688 L -12.386719 -15.890625 C -12.195312 -15.886719 -12 -15.621094 -11.847656 -15.457031 C -7.816406 -10.898438 -3.488281 -5.558594 0.09375 -0.671875 C 0.152344 -0.589844 0.265625 -0.457031 0.277344 -0.316406 L 1.816406 -2.089844 C 1.636719 -2.144531 1.445312 -2.378906 1.351562 -2.496094 C 0.242188 -3.820312 -1.339844 -5.6875 -3.140625 -7.878906 C -2.648438 -8.367188 -2.109375 -8.949219 -1.613281 -9.628906 C 0.800781 -8.152344 2.871094 -6.839844 4.320312 -5.90625 C 4.449219 -5.828125 4.707031 -5.671875 4.804688 -5.519531 Z M -4.460938 -9.484375 C -5.378906 -10.613281 -6.320312 -11.792969 -7.300781 -13.039062 C -5.949219 -12.253906 -4.648438 -11.453125 -3.425781 -10.714844 C -3.710938 -10.273438 -4.066406 -9.863281 -4.460938 -9.484375 Z M -4.460938 -9.484375 "/></g></g></g><g fill="#000000" fill-opacity="1"><g transform="translate(103.196233, 109.031336)"><g><path d="M 0.0664062 -12.402344 L -1.285156 -11.171875 C -1.632812 -10.855469 -1.851562 -10.691406 -2.117188 -10.578125 C -1.953125 -10.398438 -1.601562 -10.011719 -1.253906 -9.628906 L -0.402344 -8.699219 C -0.269531 -8.953125 -0.0859375 -9.15625 0.261719 -9.472656 L 0.738281 -9.90625 C 2.792969 -7.464844 3.644531 -5.796875 2.367188 -4.632812 C 0.722656 -3.132812 -1.539062 -5.320312 -4.902344 -9.011719 C -8.265625 -12.699219 -10.121094 -15.027344 -8.476562 -16.523438 C -7.308594 -17.589844 -5.9375 -16.898438 -3.996094 -15.023438 L -2.515625 -16.371094 C -5.871094 -19.5 -7.851562 -19.839844 -9.839844 -18.023438 C -12.308594 -15.773438 -11.398438 -13.125 -6.402344 -7.644531 C -1.421875 -2.183594 1.265625 -0.886719 3.730469 -3.136719 C 6.105469 -5.300781 5.316406 -7.855469 0.722656 -13.003906 Z M 0.0664062 -12.402344 "/></g></g></g><g fill="#000000" fill-opacity="1"><g transform="translate(113.415387, 100.035094)"><g><path d="M 4.476562 -6.121094 L 1.375 -3.871094 C 0.460938 -5.007812 -1.144531 -7.171875 -2.355469 -9.011719 L -1.035156 -9.96875 C -0.59375 -10.289062 -0.0625 -10.523438 0.222656 -10.636719 C 0.046875 -10.878906 -0.285156 -11.335938 -0.578125 -11.738281 L -1.375 -12.839844 C -1.558594 -12.582031 -1.945312 -12.148438 -2.386719 -11.832031 L -3.707031 -10.871094 C -4.039062 -11.332031 -4.09375 -11.324219 -5.515625 -13.285156 C -6.519531 -14.664062 -7.253906 -15.71875 -7.523438 -16.132812 L -4.441406 -18.371094 C -3.984375 -18.703125 -3.449219 -18.9375 -3.171875 -19.015625 C -3.347656 -19.257812 -3.679688 -19.71875 -3.972656 -20.117188 L -4.769531 -21.21875 C -4.945312 -21 -5.332031 -20.5625 -5.792969 -20.230469 L -8.714844 -18.109375 C -8.953125 -17.9375 -9.414062 -17.601562 -9.816406 -17.3125 L -10.914062 -16.511719 C -10.675781 -16.351562 -10.242188 -15.964844 -9.90625 -15.503906 C -9.414062 -14.824219 -7.941406 -12.835938 -5.734375 -9.796875 C -1.523438 -3.996094 -0.0625 -1.9375 0.0664062 -1.757812 C 0.34375 -1.378906 0.679688 -0.828125 0.761719 -0.550781 L 0.820312 -0.59375 C 0.878906 -0.640625 0.980469 -0.710938 1.121094 -0.8125 L 5.84375 -4.238281 C 6.300781 -4.574219 6.835938 -4.808594 7.117188 -4.921875 C 6.945312 -5.160156 6.609375 -5.621094 6.320312 -6.023438 L 5.519531 -7.121094 C 5.324219 -6.886719 4.9375 -6.453125 4.476562 -6.121094 Z M 4.476562 -6.121094 "/></g></g></g><g fill="#000000" fill-opacity="1"><g transform="translate(124.171636, 92.571148)"><g/></g></g><g fill="#000000" fill-opacity="1"><g transform="translate(132.163228, 87.945565)"><g><path d="M 4.335938 -7.28125 C 4.816406 -5.566406 4.6875 -4.441406 3.546875 -3.90625 C 1.53125 -2.960938 0.09375 -5.558594 -2.03125 -10.078125 C -4.152344 -14.601562 -5.152344 -17.191406 -3.136719 -18.136719 C -1.972656 -18.683594 -1.035156 -18.082031 -0.0351562 -16.589844 L 1.777344 -17.441406 C -0.171875 -20.375 -1.828125 -20.988281 -4 -19.96875 C -7.019531 -18.550781 -7.007812 -15.910156 -3.863281 -9.21875 C -0.710938 -2.503906 1.386719 -0.652344 4.40625 -2.070312 C 6.554688 -3.078125 7.117188 -4.789062 6.128906 -8.121094 Z M 4.335938 -7.28125 "/></g></g></g><g fill="#000000" fill-opacity="1"><g transform="translate(144.285653, 82.456383)"><g><path d="M 5.167969 -1.617188 C 8.332031 -2.671875 9.082031 -5.660156 6.746094 -12.671875 C 4.410156 -19.683594 2.015625 -21.621094 -1.148438 -20.566406 C -4.316406 -19.511719 -5.066406 -16.527344 -2.726562 -9.511719 C -0.390625 -2.5 2 -0.5625 5.167969 -1.617188 Z M 4.527344 -3.542969 C 2.414062 -2.835938 0.773438 -5.417969 -0.804688 -10.15625 C -2.382812 -14.890625 -2.617188 -17.941406 -0.507812 -18.644531 C 1.601562 -19.347656 3.246094 -16.769531 4.824219 -12.03125 C 6.402344 -7.292969 6.636719 -4.246094 4.527344 -3.542969 Z M 4.527344 -3.542969 "/></g></g></g><g fill="#000000" fill-opacity="1"><g transform="translate(158.329369, 78.075982)"><g><path d="M 6.296875 -3.449219 C 6.058594 -3.375 4.957031 -3.09375 2.871094 -2.675781 C 2.554688 -4.050781 1.769531 -7.421875 1.078125 -10.6875 C 0.109375 -15.28125 -0.375 -17.933594 -0.480469 -18.671875 C -0.597656 -19.226562 -0.59375 -19.808594 -0.578125 -20.089844 C -0.867188 -20.027344 -1.421875 -19.910156 -1.90625 -19.808594 L -3.238281 -19.527344 C -3.085938 -19.28125 -2.847656 -18.75 -2.730469 -18.195312 C -2.554688 -17.601562 -1.9375 -15.050781 -0.929688 -10.261719 C 0.632812 -2.863281 0.738281 -1.773438 0.777344 -1.578125 C 0.878906 -1.09375 0.960938 -0.480469 0.917969 -0.195312 C 1.160156 -0.246094 1.667969 -0.351562 2.175781 -0.460938 L 3.433594 -0.726562 L 7.933594 -1.675781 C 7.902344 -1.820312 7.816406 -2.230469 7.714844 -2.714844 L 7.46875 -3.875 C 7.289062 -3.761719 6.851562 -3.570312 6.296875 -3.449219 Z M 6.296875 -3.449219 "/></g></g></g><g fill="#000000" fill-opacity="1"><g transform="translate(170.577908, 75.700355)"><g><path d="M 6.621094 -2.773438 C 6.378906 -2.726562 5.25 -2.558594 3.132812 -2.363281 C 2.964844 -3.761719 2.535156 -7.195312 2.1875 -10.515625 C 1.703125 -15.1875 1.5 -17.875 1.472656 -18.617188 C 1.414062 -19.183594 1.476562 -19.761719 1.523438 -20.039062 C 1.230469 -20.007812 0.664062 -19.949219 0.171875 -19.898438 L -1.179688 -19.757812 C -1.054688 -19.5 -0.871094 -18.945312 -0.8125 -18.382812 C -0.703125 -17.773438 -0.355469 -15.171875 0.148438 -10.304688 C 0.929688 -2.78125 0.917969 -1.6875 0.9375 -1.488281 C 0.988281 -0.996094 1.003906 -0.378906 0.933594 -0.0976562 C 1.179688 -0.121094 1.695312 -0.175781 2.214844 -0.230469 L 3.492188 -0.363281 L 8.066406 -0.835938 C 8.050781 -0.984375 8.007812 -1.402344 7.957031 -1.894531 L 7.832031 -3.074219 C 7.644531 -2.980469 7.1875 -2.832031 6.621094 -2.773438 Z M 6.621094 -2.773438 "/></g></g></g><g fill="#000000" fill-opacity="1"><g transform="translate(182.992643, 74.607004)"><g><path d="M 7.226562 -2.300781 L 3.394531 -2.3125 C 3.324219 -3.769531 3.308594 -6.464844 3.414062 -8.664062 L 5.046875 -8.660156 C 5.589844 -8.65625 6.160156 -8.53125 6.457031 -8.457031 C 6.457031 -8.753906 6.457031 -9.324219 6.460938 -9.816406 L 6.464844 -11.175781 C 6.167969 -11.078125 5.597656 -10.957031 5.054688 -10.957031 L 3.421875 -10.964844 C 3.425781 -11.53125 3.375 -11.558594 3.382812 -13.980469 C 3.390625 -15.6875 3.417969 -16.972656 3.445312 -17.464844 L 7.25 -17.453125 C 7.820312 -17.449219 8.386719 -17.324219 8.660156 -17.226562 C 8.660156 -17.523438 8.664062 -18.089844 8.664062 -18.585938 L 8.667969 -19.945312 C 8.398438 -19.871094 7.828125 -19.75 7.257812 -19.75 L 3.648438 -19.765625 C 3.355469 -19.765625 2.785156 -19.765625 2.289062 -19.769531 L 0.929688 -19.773438 C 1.027344 -19.5 1.152344 -18.933594 1.148438 -18.363281 C 1.144531 -17.523438 1.164062 -15.050781 1.148438 -11.292969 C 1.125 -4.125 1.09375 -1.601562 1.09375 -1.378906 C 1.089844 -0.910156 1.039062 -0.269531 0.9375 0.00390625 L 1.011719 0.00390625 C 1.085938 0.00390625 1.210938 0.00390625 1.382812 0.00390625 L 7.21875 0.0234375 C 7.785156 0.0273438 8.355469 0.152344 8.652344 0.226562 C 8.652344 -0.0703125 8.652344 -0.636719 8.65625 -1.132812 L 8.660156 -2.492188 C 8.363281 -2.417969 7.792969 -2.296875 7.226562 -2.300781 Z M 7.226562 -2.300781 "/></g></g></g><g fill="#000000" fill-opacity="1"><g transform="translate(195.972161, 74.854466)"><g><path d="M 7.511719 -3.917969 C 7.019531 -2.207031 6.320312 -1.320312 5.070312 -1.460938 C 2.859375 -1.714844 2.996094 -4.683594 3.566406 -9.644531 C 4.132812 -14.605469 4.640625 -17.335938 6.851562 -17.082031 C 8.128906 -16.9375 8.613281 -15.933594 8.679688 -14.136719 L 10.667969 -13.910156 C 10.550781 -17.429688 9.464844 -18.824219 7.082031 -19.097656 C 3.765625 -19.472656 2.390625 -17.21875 1.550781 -9.875 C 0.710938 -2.507812 1.523438 0.175781 4.839844 0.550781 C 7.195312 0.820312 8.574219 -0.339844 9.476562 -3.695312 Z M 7.511719 -3.917969 "/></g></g></g><g fill="#000000" fill-opacity="1"><g transform="translate(209.193665, 76.573772)"><g><path d="M 12.230469 -17.472656 C 11.917969 -17.542969 11.242188 -17.699219 10.542969 -17.859375 L 6.210938 -18.863281 C 5.726562 -18.972656 5.132812 -19.136719 4.886719 -19.292969 C 4.832031 -19.054688 4.714844 -18.546875 4.597656 -18.042969 L 4.316406 -16.8125 C 4.601562 -16.847656 5.203125 -16.710938 5.691406 -16.621094 C 5.882812 -16.578125 6.59375 -16.464844 7.644531 -16.171875 C 7.433594 -15.15625 7.003906 -13.070312 6.085938 -9.097656 C 4.382812 -1.726562 4.015625 -0.695312 3.972656 -0.503906 C 3.867188 -0.046875 3.691406 0.597656 3.535156 0.84375 C 3.777344 0.898438 4.28125 1.015625 4.789062 1.132812 L 6.015625 1.414062 C 5.980469 1.128906 6.105469 0.472656 6.210938 0.015625 C 6.234375 -0.0820312 7.144531 -4.464844 8.109375 -8.628906 C 9.007812 -12.53125 9.546875 -14.640625 9.8125 -15.671875 C 10.855469 -15.480469 11.238281 -15.367188 11.714844 -15.230469 C 12.261719 -15.078125 12.804688 -14.902344 13.058594 -14.792969 C 13.113281 -15.035156 13.230469 -15.539062 13.34375 -16.023438 L 13.625 -17.25 C 13.351562 -17.265625 12.785156 -17.34375 12.230469 -17.472656 Z M 12.230469 -17.472656 "/></g></g></g><g fill="#000000" fill-opacity="1"><g transform="translate(222.598892, 79.991431)"><g><path d="M 9 -16.363281 C 9.179688 -16.90625 9.476562 -17.40625 9.632812 -17.640625 C 9.351562 -17.734375 8.808594 -17.914062 8.339844 -18.070312 L 7.050781 -18.496094 C 7.058594 -18.207031 6.996094 -17.628906 6.816406 -17.089844 C 6.671875 -16.488281 5.921875 -14 4.375 -9.332031 C 1.992188 -2.152344 1.53125 -1.160156 1.46875 -0.972656 C 1.3125 -0.503906 1.070312 0.0703125 0.890625 0.296875 C 1.125 0.375 1.617188 0.539062 2.113281 0.699219 L 3.332031 1.105469 C 3.324219 0.816406 3.496094 0.222656 3.648438 -0.246094 C 3.679688 -0.339844 4.972656 -4.625 6.320312 -8.683594 C 7.800781 -13.144531 8.71875 -15.675781 9 -16.363281 Z M 9 -16.363281 "/></g></g></g><g fill="#000000" fill-opacity="1"><g transform="translate(230.586474, 82.682871)"><g><path d="M 4.90625 2.289062 C 7.957031 3.640625 10.523438 1.941406 13.523438 -4.8125 C 16.523438 -11.570312 16.0625 -14.613281 13.015625 -15.96875 C 9.964844 -17.320312 7.398438 -15.621094 4.398438 -8.867188 C 1.398438 -2.109375 1.859375 0.933594 4.90625 2.289062 Z M 5.730469 0.433594 C 3.695312 -0.46875 4.222656 -3.480469 6.25 -8.042969 C 8.277344 -12.609375 10.15625 -15.019531 12.191406 -14.113281 C 14.222656 -13.210938 13.699219 -10.199219 11.671875 -5.636719 C 9.644531 -1.074219 7.761719 1.335938 5.730469 0.433594 Z M 5.730469 0.433594 "/></g></g></g><g fill="#000000" fill-opacity="1"><g transform="translate(243.876015, 88.823084)"><g><path d="M 14.027344 -3.488281 C 16.453125 -7.511719 17.886719 -9.792969 18.3125 -10.402344 C 18.59375 -10.867188 18.992188 -11.292969 19.210938 -11.507812 C 18.957031 -11.660156 18.46875 -11.953125 18.046875 -12.210938 L 16.882812 -12.910156 C 16.828125 -12.628906 16.636719 -12.078125 16.34375 -11.589844 C 16.066406 -11.035156 14.777344 -8.753906 12.25 -4.5625 C 11.265625 -2.933594 10.460938 -1.597656 9.777344 -0.511719 L 13.285156 -15.082031 L 12.121094 -15.785156 C 11.90625 -15.914062 11.695312 -16.039062 11.503906 -16.15625 L 10.957031 -16.488281 C 10.898438 -16.203125 10.710938 -15.652344 10.417969 -15.164062 C 10.140625 -14.609375 8.851562 -12.328125 6.324219 -8.136719 C 2.417969 -1.660156 1.75 -0.792969 1.644531 -0.625 C 1.390625 -0.199219 1.03125 0.304688 0.804688 0.484375 C 1.015625 0.613281 1.460938 0.882812 1.90625 1.148438 L 3.003906 1.8125 C 3.0625 1.527344 3.359375 0.988281 3.613281 0.5625 C 3.664062 0.480469 5.871094 -3.414062 8.082031 -7.078125 C 8.898438 -8.433594 9.59375 -9.542969 10.144531 -10.453125 L 6.667969 4.023438 L 8.933594 5.386719 C 8.988281 5.105469 9.285156 4.5625 9.542969 4.140625 C 9.59375 4.054688 11.820312 0.171875 14.027344 -3.488281 Z M 14.027344 -3.488281 "/></g></g></g><g fill="#000000" fill-opacity="1"><g transform="translate(256.789964, 97.031689)"><g/></g></g><g fill="#000000" fill-opacity="1"><g transform="translate(264.106771, 102.637336)"><g><path d="M 7.117188 6.539062 C 7.113281 6.398438 7.191406 6.238281 7.257812 6.164062 C 10.273438 0.910156 13.980469 -4.878906 17.480469 -9.855469 C 17.613281 -10.035156 17.773438 -10.324219 17.964844 -10.347656 L 17.929688 -10.382812 C 17.421875 -10.851562 16.457031 -11.738281 16.253906 -11.921875 L 16.21875 -11.953125 C 16.210938 -11.761719 15.9375 -11.574219 15.769531 -11.425781 C 11.105469 -7.519531 5.648438 -3.335938 0.667969 0.113281 C 0.585938 0.167969 0.449219 0.277344 0.308594 0.285156 L 2.039062 1.875 C 2.101562 1.695312 2.339844 1.511719 2.457031 1.417969 C 3.8125 0.347656 5.722656 -1.1875 7.957031 -2.925781 C 8.433594 -2.421875 9 -1.867188 9.671875 -1.355469 C 8.125 1.019531 6.761719 3.054688 5.789062 4.480469 C 5.707031 4.605469 5.542969 4.855469 5.386719 4.949219 Z M 9.601562 -4.203125 C 10.753906 -5.09375 11.957031 -6 13.230469 -6.945312 C 12.410156 -5.617188 11.574219 -4.339844 10.800781 -3.132812 C 10.371094 -3.429688 9.96875 -3.800781 9.601562 -4.203125 Z M 9.601562 -4.203125 "/></g></g></g><g fill="#000000" fill-opacity="1"><g transform="translate(274.227184, 112.25375)"><g><path d="M 12.398438 0.398438 L 11.203125 -0.984375 C 10.894531 -1.339844 10.734375 -1.5625 10.632812 -1.832031 C 10.445312 -1.671875 10.050781 -1.332031 9.660156 -0.992188 L 8.707031 -0.167969 C 8.957031 -0.0273438 9.15625 0.164062 9.460938 0.519531 L 9.882812 1.003906 C 7.386719 2.996094 5.699219 3.800781 4.566406 2.492188 C 3.113281 0.804688 5.359375 -1.394531 9.140625 -4.660156 C 12.917969 -7.921875 15.292969 -9.710938 16.746094 -8.027344 C 17.78125 -6.828125 17.050781 -5.480469 15.125 -3.589844 L 16.433594 -2.074219 C 19.652344 -5.34375 20.042969 -7.3125 18.28125 -9.351562 C 16.101562 -11.878906 13.429688 -11.039062 7.816406 -6.191406 C 2.21875 -1.363281 0.851562 1.289062 3.03125 3.816406 C 5.132812 6.246094 7.710938 5.523438 12.980469 1.074219 Z M 12.398438 0.398438 "/></g></g></g><g fill="#000000" fill-opacity="1"><g transform="translate(282.949519, 122.706947)"><g><path d="M 5.996094 4.640625 L 3.832031 1.480469 C 4.992188 0.59375 7.199219 -0.949219 9.070312 -2.113281 L 9.992188 -0.765625 C 10.300781 -0.316406 10.519531 0.222656 10.628906 0.507812 C 10.871094 0.339844 11.339844 0.0195312 11.75 -0.261719 L 12.871094 -1.027344 C 12.621094 -1.21875 12.199219 -1.617188 11.890625 -2.066406 L 10.96875 -3.410156 C 11.4375 -3.734375 11.429688 -3.789062 13.429688 -5.15625 C 14.835938 -6.121094 15.910156 -6.828125 16.332031 -7.085938 L 18.484375 -3.945312 C 18.804688 -3.476562 19.023438 -2.9375 19.097656 -2.65625 C 19.339844 -2.824219 19.808594 -3.148438 20.21875 -3.425781 L 21.339844 -4.195312 C 21.125 -4.378906 20.699219 -4.777344 20.378906 -5.246094 L 18.339844 -8.222656 C 18.171875 -8.46875 17.851562 -8.9375 17.570312 -9.34375 L 16.800781 -10.464844 C 16.632812 -10.230469 16.234375 -9.808594 15.765625 -9.484375 C 15.070312 -9.011719 13.046875 -7.59375 9.949219 -5.46875 C 4.035156 -1.417969 1.941406 -0.0117188 1.757812 0.113281 C 1.371094 0.378906 0.8125 0.703125 0.53125 0.773438 L 0.574219 0.835938 C 0.613281 0.898438 0.683594 1 0.78125 1.140625 L 4.082031 5.953125 C 4.402344 6.421875 4.621094 6.960938 4.726562 7.25 C 4.972656 7.082031 5.441406 6.757812 5.847656 6.480469 L 6.972656 5.710938 C 6.742188 5.507812 6.320312 5.109375 5.996094 4.640625 Z M 5.996094 4.640625 "/></g></g></g><g fill="#000000" fill-opacity="1"><g transform="translate(290.129587, 133.464913)"><g><path d="M 13.804688 4.289062 C 17.964844 2.109375 20.375 0.902344 21.054688 0.601562 C 21.535156 0.347656 22.097656 0.195312 22.394531 0.121094 C 22.253906 -0.140625 21.992188 -0.644531 21.761719 -1.082031 L 21.128906 -2.285156 C 20.9375 -2.074219 20.488281 -1.699219 19.984375 -1.433594 C 19.460938 -1.105469 17.175781 0.179688 12.839844 2.449219 C 11.15625 3.335938 9.773438 4.058594 8.625 4.632812 L 19.179688 -6.007812 L 18.546875 -7.210938 C 18.433594 -7.429688 18.316406 -7.648438 18.214844 -7.847656 L 17.917969 -8.417969 C 17.722656 -8.203125 17.273438 -7.828125 16.773438 -7.566406 C 16.246094 -7.234375 13.960938 -5.953125 9.625 -3.679688 C 2.925781 -0.167969 1.90625 0.230469 1.730469 0.320312 C 1.292969 0.550781 0.722656 0.792969 0.4375 0.832031 C 0.550781 1.050781 0.792969 1.511719 1.03125 1.96875 L 1.628906 3.109375 C 1.824219 2.894531 2.359375 2.585938 2.796875 2.355469 C 2.886719 2.3125 6.792969 0.125 10.578125 -1.863281 C 11.980469 -2.597656 13.152344 -3.183594 14.09375 -3.675781 L 3.617188 6.894531 L 4.84375 9.238281 C 5.039062 9.023438 5.574219 8.714844 6.011719 8.488281 C 6.101562 8.441406 10.015625 6.277344 13.804688 4.289062 Z M 13.804688 4.289062 "/></g></g></g><g fill="#000000" fill-opacity="1"><g transform="translate(296.928393, 147.052995)"><g><path d="M 6.933594 4.875 C 5.1875 5.222656 4.074219 5.007812 3.625 3.832031 C 2.835938 1.75 5.539062 0.511719 10.203125 -1.261719 C 14.871094 -3.039062 17.53125 -3.839844 18.320312 -1.757812 C 18.777344 -0.558594 18.109375 0.332031 16.542969 1.21875 L 17.253906 3.089844 C 20.328125 1.363281 21.066406 -0.238281 20.214844 -2.480469 C 19.027344 -5.597656 16.390625 -5.785156 9.484375 -3.15625 C 2.550781 -0.519531 0.546875 1.433594 1.730469 4.550781 C 2.574219 6.769531 4.238281 7.460938 7.636719 6.722656 Z M 6.933594 4.875 "/></g></g></g><g fill="#000000" fill-opacity="1"><g transform="translate(301.503656, 159.519339)"><g><path d="M 21.371094 4.074219 C 21.289062 4.148438 21.167969 4.175781 21.113281 4.164062 L 13.382812 2.863281 L 19.628906 -1.859375 C 19.671875 -1.894531 19.785156 -1.949219 19.898438 -1.902344 L 19.300781 -4.324219 C 19.253906 -4.210938 19.132812 -4.078125 19.050781 -4.007812 L 10.621094 2.398438 L 2.507812 4.398438 C 2.03125 4.515625 1.410156 4.589844 1.125 4.558594 C 1.183594 4.800781 1.308594 5.304688 1.433594 5.808594 L 1.738281 7.054688 C 1.980469 6.894531 2.5625 6.675781 3.042969 6.558594 L 11.15625 4.558594 L 21.59375 6.3125 C 21.699219 6.335938 21.867188 6.398438 21.964844 6.476562 Z M 21.371094 4.074219 "/></g></g></g></svg>